<?xml version="1.0" standalone="no"?>
<!DOCTYPE svg PUBLIC "-//W3C//DTD SVG 20010904//EN"
 "http://www.w3.org/TR/2001/REC-SVG-20010904/DTD/svg10.dtd">
<svg version="1.0" xmlns="http://www.w3.org/2000/svg"
 width="1024.000000pt" height="1024.000000pt" viewBox="0 0 1024.000000 1024.000000"
 preserveAspectRatio="xMidYMid meet">

<g transform="translate(0.000000,1024.000000) scale(0.100000,-0.100000)"
fill="#000000" stroke="none">
<path d="M0 5120 l0 -5120 5120 0 5120 0 0 5120 0 5120 -5120 0 -5120 0 0
-5120z m8037 4605 c254 -38 422 -85 537 -149 34 -19 84 -46 111 -61 54 -30
184 -125 225 -165 136 -134 275 -387 332 -605 48 -184 58 -619 20 -900 -33
-254 -51 -364 -71 -450 -11 -44 -22 -105 -26 -135 -3 -30 -17 -149 -31 -265
-13 -115 -29 -246 -35 -290 -15 -111 -6 -440 15 -532 57 -254 203 -409 465
-494 52 -16 117 -32 145 -35 28 -3 67 -9 86 -15 19 -5 62 -9 94 -9 l59 0 -6
-82 c-4 -46 -7 -169 -7 -274 l0 -191 -107 -7 c-207 -13 -370 -57 -489 -132
-111 -69 -165 -135 -235 -289 -60 -133 -82 -514 -47 -825 8 -74 16 -151 17
-170 1 -19 8 -84 17 -145 40 -293 55 -413 59 -482 2 -42 10 -123 17 -182 7
-58 12 -198 12 -311 -2 -341 -40 -545 -141 -750 -75 -151 -129 -229 -222 -320
-116 -113 -213 -183 -318 -231 -202 -92 -222 -99 -403 -134 -236 -45 -384 -57
-587 -48 l-153 6 0 216 c0 119 3 252 6 296 l7 80 89 0 c118 0 280 12 343 26
28 6 67 12 87 15 81 8 239 97 315 176 52 54 124 168 148 233 10 28 21 55 25
60 15 19 41 161 49 265 11 141 4 418 -13 560 -8 63 -22 180 -31 260 -9 80 -27
224 -40 320 -39 282 -46 381 -41 625 4 251 14 319 67 482 55 170 119 278 235
399 100 103 283 210 437 255 76 22 93 35 60 45 -26 8 -122 43 -168 62 -109 44
-301 197 -377 299 -78 106 -155 293 -194 473 -31 146 -27 593 7 787 6 32 12
69 14 83 3 14 22 142 44 285 22 143 47 298 55 345 28 152 39 301 39 525 1 191
-2 231 -20 305 -40 160 -103 288 -182 374 -103 109 -224 179 -371 211 -69 16
-343 45 -416 45 l-44 0 0 158 c0 88 3 220 7 295 l6 137 178 0 c140 0 215 -5
346 -25z m-5427 -282 l0 -298 -90 0 c-371 2 -602 -91 -735 -296 -66 -102 -73
-118 -105 -251 -60 -245 -58 -558 6 -978 7 -52 14 -113 14 -135 0 -22 15 -146
34 -275 59 -401 69 -716 31 -934 -19 -105 -66 -270 -99 -341 -56 -123 -172
-269 -271 -340 -22 -16 -42 -32 -45 -35 -14 -18 -164 -91 -227 -111 -73 -23
-88 -35 -55 -45 22 -7 105 -41 162 -66 172 -77 343 -256 437 -458 51 -112 98
-316 114 -501 17 -203 4 -407 -56 -849 -108 -808 -115 -1051 -39 -1353 19 -79
37 -123 80 -193 145 -242 366 -344 746 -344 l98 0 0 -300 0 -300 -185 0 c-117
0 -185 4 -185 10 0 6 -21 10 -47 10 -48 0 -178 20 -264 39 -182 41 -407 148
-520 245 -19 17 -46 40 -60 51 -130 110 -283 381 -349 620 -40 147 -62 584
-40 810 6 55 15 156 21 224 5 68 19 176 30 240 20 115 46 319 70 541 7 64 13
252 13 425 l1 310 -28 80 c-86 242 -202 362 -424 437 -95 32 -105 34 -245 44
l-98 7 0 277 0 277 98 7 c330 23 538 149 635 386 47 115 58 175 64 365 7 246
-9 513 -51 805 -73 519 -91 726 -91 1055 0 273 22 446 76 584 60 156 85 209
124 266 25 35 45 68 45 74 0 21 209 219 280 266 262 170 539 240 968 244 l162
1 0 -297z m2590 -2643 c602 -44 1106 -359 1378 -860 131 -242 189 -528 163
-809 -32 -354 -170 -640 -436 -907 -231 -232 -483 -372 -811 -453 -132 -32
-239 -43 -414 -43 -306 0 -545 55 -805 185 -297 148 -571 412 -706 679 -117
232 -162 418 -162 668 0 228 41 412 137 615 100 210 232 382 401 524 279 234
633 375 1005 400 63 5 117 9 120 9 3 1 61 -3 130 -8z m-2548 -187 c16 -14 18
-35 18 -209 0 -229 8 -277 57 -333 38 -45 98 -81 134 -81 l22 0 -6 288 c-5
273 -5 291 14 320 16 27 25 32 59 32 27 0 47 -7 60 -20 19 -19 20 -33 20 -320
0 -338 -5 -319 77 -279 23 11 56 37 71 57 50 64 56 97 48 298 -6 190 0 236 34
254 29 15 81 12 102 -7 16 -15 18 -36 18 -244 0 -210 -2 -232 -22 -284 -41
-109 -172 -216 -286 -234 l-37 -6 -3 -292 -2 -292 47 -3 48 -3 3 -575 c1 -316
0 -585 -3 -597 -14 -58 -104 -123 -170 -123 -76 0 -157 55 -175 119 -6 22 -10
262 -10 607 0 634 -6 584 66 584 l34 0 -2 287 -3 287 -41 7 c-104 18 -214 102
-267 203 l-32 61 -3 234 c-3 230 -3 234 19 257 27 29 83 32 111 7z m4907 -7
c8 -10 11 -354 11 -1305 0 -1392 2 -1329 -51 -1381 -34 -32 -98 -60 -140 -60
-56 0 -140 48 -166 95 l-23 40 0 630 c0 599 -1 633 -19 681 -31 81 -71 273
-71 341 0 84 31 254 65 357 59 181 218 465 322 574 43 45 54 50 72 28z"/>
</g>
</svg>
